<?xml version="1.0" encoding="UTF-8" standalone="no"?>

<svg
   width="128"
   height="128"
   viewBox="0 0 33.866666 33.866668"
   version="1.1"
   id="svg2147"
   inkscape:version="1.1 (c68e22c387, 2021-05-23)"
   sodipodi:docname="moon.svg"
   inkscape:export-filename="C:\Users\Nythero\Projects\website\img\moon2.png"
   inkscape:export-xdpi="96"
   inkscape:export-ydpi="96"
   xmlns:inkscape="http://www.inkscape.org/namespaces/inkscape"
   xmlns:sodipodi="http://sodipodi.sourceforge.net/DTD/sodipodi-0.dtd"
   xmlns="http://www.w3.org/2000/svg"
   xmlns:svg="http://www.w3.org/2000/svg">
  <defs
     id="defs2144">
    <inkscape:path-effect
       effect="fillet_chamfer"
       id="path-effect865"
       is_visible="true"
       lpeversion="1"
       satellites_param="F,0,0,1,0,0,0,3 @ F,0,0,1,0,0,0,3 @ F,0,0,1,0,0,0,3"
       unit="px"
       method="auto"
       mode="F"
       radius="0"
       chamfer_steps="3"
       flexible="false"
       use_knot_distance="true"
       apply_no_radius="true"
       apply_with_radius="true"
       only_selected="true"
       hide_knots="false" />
    <inkscape:path-effect
       effect="fillet_chamfer"
       id="path-effect14762"
       is_visible="true"
       lpeversion="1"
       satellites_param="F,0,0,1,0,0,0,3 @ F,0,0,1,0,0,0,3 @ F,0,0,1,0,0,0,3"
       unit="px"
       method="auto"
       mode="F"
       radius="0"
       chamfer_steps="3"
       flexible="false"
       use_knot_distance="true"
       apply_no_radius="true"
       apply_with_radius="true"
       only_selected="true"
       hide_knots="false" />
    <inkscape:path-effect
       effect="fillet_chamfer"
       id="path-effect12270"
       is_visible="true"
       lpeversion="1"
       satellites_param="F,0,0,1,0,0,0,3 @ F,0,0,1,0,0,0,3 @ F,0,0,1,0,0,0,3 @ F,0,0,1,0,0,0,3"
       unit="px"
       method="auto"
       mode="F"
       radius="0"
       chamfer_steps="3"
       flexible="false"
       use_knot_distance="true"
       apply_no_radius="true"
       apply_with_radius="true"
       only_selected="true"
       hide_knots="false" />
    <inkscape:path-effect
       effect="fillet_chamfer"
       id="path-effect12069"
       is_visible="true"
       lpeversion="1"
       satellites_param="F,0,0,1,0,0,0,3 @ F,0,0,1,0,0,0,3 @ F,0,0,1,0,0,0,3 @ F,0,0,1,0,0,0,3"
       unit="px"
       method="auto"
       mode="F"
       radius="0"
       chamfer_steps="3"
       flexible="false"
       use_knot_distance="true"
       apply_no_radius="true"
       apply_with_radius="true"
       only_selected="true"
       hide_knots="false" />
    <inkscape:path-effect
       effect="fillet_chamfer"
       id="path-effect2842"
       is_visible="true"
       lpeversion="1"
       satellites_param="F,0,0,1,0,0,0,3 @ F,0,0,1,0,0,0,3 @ F,0,0,1,0,0,0,3 @ F,0,0,1,0,0,0,3"
       unit="px"
       method="auto"
       mode="F"
       radius="0"
       chamfer_steps="3"
       flexible="false"
       use_knot_distance="true"
       apply_no_radius="true"
       apply_with_radius="true"
       only_selected="true"
       hide_knots="false" />
    <inkscape:path-effect
       effect="fillet_chamfer"
       id="path-effect2339"
       is_visible="true"
       lpeversion="1"
       satellites_param="F,0,0,1,0,0,0,3 @ F,0,0,1,0,0,0,3 @ F,0,0,1,0,0,0,3 @ F,0,0,1,0,0,0,3"
       unit="px"
       method="auto"
       mode="F"
       radius="0"
       chamfer_steps="3"
       flexible="false"
       use_knot_distance="true"
       apply_no_radius="true"
       apply_with_radius="true"
       only_selected="true"
       hide_knots="false" />
  </defs>
  <g
     inkscape:label="Moon"
     inkscape:groupmode="layer"
     id="layer1"
     style="display:inline">
    <path
       style="fill:#ffffff;stroke:#ffffff;stroke-width:0.203504;stroke-opacity:1;paint-order:stroke markers fill;fill-opacity:1"
       id="path2230"
       transform="scale(1,-1)"
       sodipodi:type="arc"
       sodipodi:cx="16.933334"
       sodipodi:cy="-16.933334"
       sodipodi:rx="8.3649149"
       sodipodi:ry="8.3649149"
       d="m 21.115791,-9.6891053 c -3.515578,2.0297198 -7.980996,1.2423459 -10.590353,-1.8673657 -2.6093581,-3.109712 -2.6093579,-7.644016 0,-10.753727 2.609358,-3.109712 7.074776,-3.897085 10.590354,-1.867365 z"
       inkscape:path-effect="#path-effect2339"
       sodipodi:start="1.0471976"
       sodipodi:end="5.2359878"
       sodipodi:arc-type="chord"
       sodipodi:open="true"
       inkscape:export-filename="C:\Users\Nythero\Projects\website\img\moon2.png"
       inkscape:export-xdpi="96"
       inkscape:export-ydpi="96" />
    <path
       style="fill:none;stroke:none;stroke-width:0.203504;paint-order:stroke markers fill"
       id="path2230-8"
       transform="scale(1,-1)"
       sodipodi:type="arc"
       sodipodi:cx="16.933334"
       sodipodi:cy="-16.933334"
       sodipodi:rx="8.3649149"
       sodipodi:ry="8.3649149"
       inkscape:path-effect="#path-effect12069"
       d="m 25.298249,-16.933334 c 0,4.619815 -3.7451,8.3649145 -8.364915,8.3649145 -4.619815,0 -8.3649145,-3.7450995 -8.3649145,-8.3649145 0,-4.619815 3.7450995,-8.364915 8.3649145,-8.364915 4.619815,0 8.364915,3.7451 8.364915,8.364915 z" />
  </g>
  <g
     inkscape:groupmode="layer"
     id="layer2"
     inkscape:label="Shadow"
     style="display:inline"
     sodipodi:insensitive="true">
    <path
       id="path2230-5"
       style="fill:#4d4d4d;stroke:none;stroke-width:0.769149;stroke-opacity:1;paint-order:stroke markers fill"
       d="m 79.994141,91.267578 c 0.08756,-0.05135 0.176718,-0.100219 0.263671,-0.152344 0.306586,-0.183785 0.609291,-0.373201 0.908204,-0.566406 0.298912,-0.193205 0.595627,-0.391376 0.886718,-0.59375 0.291092,-0.202374 0.578206,-0.407848 0.861328,-0.61914 0.283123,-0.211293 0.560932,-0.428478 0.835938,-0.648438 0.275006,-0.21996 0.545758,-0.443499 0.8125,-0.671875 0.266742,-0.228376 0.530732,-0.460724 0.789062,-0.697266 0.258331,-0.236541 0.511949,-0.4782 0.761719,-0.722656 0.249771,-0.244456 0.495266,-0.492021 0.736328,-0.744141 0.241063,-0.252119 0.476777,-0.508045 0.708985,-0.767578 0.232207,-0.259532 0.460389,-0.522368 0.683594,-0.789062 0.223204,-0.266695 0.442196,-0.536942 0.65625,-0.810547 0.214053,-0.273605 0.424151,-0.551766 0.628906,-0.832031 0.204754,-0.280266 0.404301,-0.562935 0.599609,-0.84961 0.195308,-0.286675 0.384599,-0.576307 0.570313,-0.86914 0.185713,-0.292834 0.366997,-0.587978 0.542968,-0.886719 0.175972,-0.298741 0.34759,-0.601853 0.513672,-0.90625 0.166082,-0.304397 0.326378,-0.610119 0.482422,-0.919922 0.156044,-0.309803 0.307266,-0.622542 0.453125,-0.9375 0.145859,-0.314958 0.286349,-0.633263 0.421875,-0.953125 0.135526,-0.319862 0.267534,-0.642282 0.392578,-0.966797 0.125045,-0.324515 0.243006,-0.651551 0.357422,-0.980469 0.114416,-0.328917 0.224486,-0.659119 0.328125,-0.992187 0.103639,-0.333068 0.202207,-0.668891 0.294922,-1.005859 0.09271,-0.336969 0.180076,-0.675007 0.261719,-1.015625 0.08164,-0.340619 0.158092,-0.683327 0.228515,-1.027344 0.07042,-0.344017 0.134305,-0.689945 0.19336,-1.037109 0.05906,-0.347165 0.112616,-0.694861 0.160156,-1.044922 0.04754,-0.350062 0.08912,-0.701981 0.125,-1.054688 0.03588,-0.352707 0.06578,-0.707398 0.08984,-1.0625 0.02407,-0.355102 0.04258,-0.711113 0.05469,-1.068359 0.01211,-0.357247 0.01758,-0.715079 0.01758,-1.074219 0,-0.35914 -0.0055,-0.716972 -0.01758,-1.074219 -0.01211,-0.357246 -0.03062,-0.713257 -0.05469,-1.068359 -0.02407,-0.355102 -0.05397,-0.709793 -0.08984,-1.0625 -0.03588,-0.352707 -0.07746,-0.704626 -0.125,-1.054688 -0.04754,-0.350061 -0.101101,-0.697757 -0.160156,-1.044922 -0.05906,-0.347164 -0.122937,-0.693092 -0.19336,-1.037109 -0.07042,-0.344017 -0.146872,-0.686726 -0.228515,-1.027344 -0.08164,-0.340618 -0.169004,-0.678656 -0.261719,-1.015625 -0.09271,-0.336968 -0.191283,-0.672791 -0.294922,-1.005859 -0.103639,-0.333068 -0.213709,-0.663271 -0.328125,-0.992187 -0.114416,-0.328917 -0.232377,-0.655954 -0.357422,-0.980469 -0.125044,-0.324515 -0.257052,-0.646935 -0.392578,-0.966797 -0.135526,-0.319862 -0.276016,-0.638167 -0.421875,-0.953125 -0.145859,-0.314958 -0.297081,-0.627697 -0.453125,-0.9375 -0.156044,-0.309803 -0.31634,-0.615525 -0.482422,-0.919922 -0.166082,-0.304397 -0.3377,-0.607509 -0.513672,-0.90625 -0.175971,-0.298741 -0.357255,-0.593885 -0.542968,-0.886719 -0.185714,-0.292833 -0.375005,-0.582465 -0.570313,-0.86914 -0.195308,-0.286675 -0.394855,-0.569344 -0.599609,-0.84961 -0.204755,-0.280265 -0.414853,-0.558426 -0.628906,-0.832031 -0.214054,-0.273605 -0.433046,-0.543852 -0.65625,-0.810547 -0.223205,-0.266694 -0.451387,-0.52953 -0.683594,-0.789062 -0.232208,-0.259533 -0.467922,-0.515459 -0.708985,-0.767578 -0.241062,-0.25212 -0.486557,-0.499685 -0.736328,-0.744141 -0.24977,-0.244456 -0.503388,-0.486115 -0.761719,-0.722656 -0.25833,-0.236542 -0.52232,-0.46889 -0.789062,-0.697266 C 84.295758,39.755999 84.025006,39.53246 83.75,39.3125 83.474994,39.09254 83.197185,38.875355 82.914062,38.664062 82.63094,38.45277 82.343826,38.247296 82.052734,38.044922 81.761643,37.842548 81.464928,37.644377 81.166016,37.451172 80.867103,37.257967 80.564398,37.068551 80.257812,36.884766 80.170859,36.832641 80.081704,36.783776 79.994141,36.732422 70.65417,42.226672 64.384766,52.380272 64.384766,64 c 0,11.619728 6.269404,21.773327 15.609375,27.267578 z"
       transform="scale(0.26458333)"
       inkscape:export-filename="C:\Users\Nythero\Projects\website\img\moon.png"
       inkscape:export-xdpi="96"
       inkscape:export-ydpi="96" />
  </g>
</svg>
