<?xml version="1.0" encoding="UTF-8" standalone="no"?>
<!-- Created with Inkscape (http://www.inkscape.org/) -->

<svg
   width="128"
   height="128"
   viewBox="0 0 33.866666 33.866668"
   version="1.1"
   id="svg5"
   inkscape:version="1.1 (c68e22c387, 2021-05-23)"
   sodipodi:docname="sun.svg"
   xmlns:inkscape="http://www.inkscape.org/namespaces/inkscape"
   xmlns:sodipodi="http://sodipodi.sourceforge.net/DTD/sodipodi-0.dtd"
   xmlns="http://www.w3.org/2000/svg"
   xmlns:svg="http://www.w3.org/2000/svg">
  <sodipodi:namedview
     id="namedview7"
     pagecolor="#ffffff"
     bordercolor="#666666"
     borderopacity="1.0"
     inkscape:pageshadow="2"
     inkscape:pageopacity="0.0"
     inkscape:pagecheckerboard="0"
     inkscape:document-units="mm"
     showgrid="false"
     units="px"
     inkscape:zoom="4.6465043"
     inkscape:cx="52.835419"
     inkscape:cy="69.191801"
     inkscape:window-width="1600"
     inkscape:window-height="837"
     inkscape:window-x="-8"
     inkscape:window-y="-8"
     inkscape:window-maximized="1"
     inkscape:current-layer="layer1" />
  <defs
     id="defs2">
    <inkscape:path-effect
       effect="fillet_chamfer"
       id="path-effect2180"
       is_visible="true"
       lpeversion="1"
       satellites_param="F,0,0,1,0,1.8520833,0,1 @ F,0,0,1,0,1.8520833,0,1 @ F,0,0,1,0,1.8520833,0,1 @ F,0,0,1,0,1.8520833,0,1"
       unit="px"
       method="auto"
       mode="F"
       radius="7"
       chamfer_steps="1"
       flexible="false"
       use_knot_distance="true"
       apply_no_radius="true"
       apply_with_radius="true"
       only_selected="false"
       hide_knots="false" />
    <inkscape:path-effect
       effect="fillet_chamfer"
       id="path-effect2161"
       is_visible="true"
       lpeversion="1"
       satellites_param="F,0,0,1,0,1.8520833,0,1 @ F,0,0,1,0,1.8520833,0,1 @ F,0,0,1,0,1.8520833,0,1 @ F,0,0,1,0,1.8520833,0,1"
       unit="px"
       method="auto"
       mode="F"
       radius="7"
       chamfer_steps="1"
       flexible="false"
       use_knot_distance="true"
       apply_no_radius="true"
       apply_with_radius="true"
       only_selected="false"
       hide_knots="false" />
    <inkscape:path-effect
       effect="fillet_chamfer"
       id="path-effect2142"
       is_visible="true"
       lpeversion="1"
       satellites_param="F,0,0,1,0,1.8520833,0,1 @ F,0,0,1,0,1.8520833,0,1 @ F,0,0,1,0,1.8520833,0,1 @ F,0,0,1,0,1.8520833,0,1"
       unit="px"
       method="auto"
       mode="F"
       radius="7"
       chamfer_steps="1"
       flexible="false"
       use_knot_distance="true"
       apply_no_radius="true"
       apply_with_radius="true"
       only_selected="false"
       hide_knots="false" />
    <inkscape:path-effect
       effect="fillet_chamfer"
       id="path-effect1771"
       is_visible="true"
       lpeversion="1"
       satellites_param="F,0,0,1,0,1.8520833,0,1 @ F,0,0,1,0,1.8520833,0,1 @ F,0,0,1,0,1.8520833,0,1 @ F,0,0,1,0,1.8520833,0,1"
       unit="px"
       method="auto"
       mode="F"
       radius="7"
       chamfer_steps="1"
       flexible="false"
       use_knot_distance="true"
       apply_no_radius="true"
       apply_with_radius="true"
       only_selected="false"
       hide_knots="false" />
    <inkscape:path-effect
       effect="fillet_chamfer"
       id="path-effect1752"
       is_visible="true"
       lpeversion="1"
       satellites_param="F,0,0,1,0,1.8520833,0,1 @ F,0,0,1,0,1.8520833,0,1 @ F,0,0,1,0,1.8520833,0,1 @ F,0,0,1,0,1.8520833,0,1"
       unit="px"
       method="auto"
       mode="F"
       radius="7"
       chamfer_steps="1"
       flexible="false"
       use_knot_distance="true"
       apply_no_radius="true"
       apply_with_radius="true"
       only_selected="false"
       hide_knots="false" />
    <inkscape:path-effect
       effect="fillet_chamfer"
       id="path-effect1733"
       is_visible="true"
       lpeversion="1"
       satellites_param="F,0,0,1,0,1.8520833,0,1 @ F,0,0,1,0,1.8520833,0,1 @ F,0,0,1,0,1.8520833,0,1 @ F,0,0,1,0,1.8520833,0,1"
       unit="px"
       method="auto"
       mode="F"
       radius="7"
       chamfer_steps="1"
       flexible="false"
       use_knot_distance="true"
       apply_no_radius="true"
       apply_with_radius="true"
       only_selected="false"
       hide_knots="false" />
    <inkscape:path-effect
       effect="fillet_chamfer"
       id="path-effect1714"
       is_visible="true"
       lpeversion="1"
       satellites_param="F,0,0,1,0,1.8520833,0,1 @ F,0,0,1,0,1.8520833,0,1 @ F,0,0,1,0,1.8520833,0,1 @ F,0,0,1,0,1.8520833,0,1"
       unit="px"
       method="auto"
       mode="F"
       radius="7"
       chamfer_steps="1"
       flexible="false"
       use_knot_distance="true"
       apply_no_radius="true"
       apply_with_radius="true"
       only_selected="false"
       hide_knots="false" />
    <inkscape:path-effect
       effect="fillet_chamfer"
       id="path-effect1672"
       is_visible="true"
       lpeversion="1"
       satellites_param="F,0,0,1,0,1.8520833,0,1 @ F,0,0,1,0,1.8520833,0,1 @ F,0,0,1,0,1.8520833,0,1 @ F,0,0,1,0,1.8520833,0,1"
       unit="px"
       method="auto"
       mode="F"
       radius="7"
       chamfer_steps="1"
       flexible="false"
       use_knot_distance="true"
       apply_no_radius="true"
       apply_with_radius="true"
       only_selected="false"
       hide_knots="false" />
    <inkscape:path-effect
       effect="fillet_chamfer"
       id="path-effect1653"
       is_visible="true"
       lpeversion="1"
       satellites_param="F,0,0,1,0,1.8520833,0,1 @ F,0,0,1,0,1.8520833,0,1 @ F,0,0,1,0,1.8520833,0,1 @ F,0,0,1,0,1.8520833,0,1"
       unit="px"
       method="auto"
       mode="F"
       radius="7"
       chamfer_steps="1"
       flexible="false"
       use_knot_distance="true"
       apply_no_radius="true"
       apply_with_radius="true"
       only_selected="false"
       hide_knots="false" />
    <inkscape:path-effect
       effect="fillet_chamfer"
       id="path-effect1624"
       is_visible="true"
       lpeversion="1"
       satellites_param="F,0,0,1,0,1.8520833,0,1 @ F,0,0,1,0,1.8520833,0,1 @ F,0,0,1,0,1.8520833,0,1 @ F,0,0,1,0,1.8520833,0,1"
       unit="px"
       method="auto"
       mode="F"
       radius="7"
       chamfer_steps="1"
       flexible="false"
       use_knot_distance="true"
       apply_no_radius="true"
       apply_with_radius="true"
       only_selected="false"
       hide_knots="false" />
    <inkscape:path-effect
       effect="fillet_chamfer"
       id="path-effect1516"
       is_visible="true"
       lpeversion="1"
       satellites_param="F,0,0,1,0,1.8520833,0,1 @ F,0,0,1,0,1.8520833,0,1 @ F,0,0,1,0,1.8520833,0,1 @ F,0,0,1,0,1.8520833,0,1"
       unit="px"
       method="auto"
       mode="F"
       radius="7"
       chamfer_steps="1"
       flexible="false"
       use_knot_distance="true"
       apply_no_radius="true"
       apply_with_radius="true"
       only_selected="false"
       hide_knots="false" />
  </defs>
  <g
     inkscape:label="Capa 1"
     inkscape:groupmode="layer"
     id="layer1">
    <circle
       style="fill:none;stroke:#000000;stroke-width:0.29077708;stroke-miterlimit:0;stroke-dasharray:none;stroke-opacity:1;paint-order:stroke markers fill"
       id="path846"
       cx="16.933332"
       cy="16.933332"
       r="8.3213043" />
    <path
       style="fill:none;stroke:#000000;stroke-width:0.264583;stroke-linecap:round;stroke-linejoin:round;stroke-miterlimit:0;stroke-dasharray:none;stroke-opacity:1;paint-order:stroke markers fill"
       id="rect1302"
       width="3.9687624"
       height="6.085423"
       x="14.948958"
       y="1.1906248"
       inkscape:path-effect="#path-effect1516"
       d="m 16.801042,1.1906248 h 0.264595 a 1.8520833,1.8520833 45 0 1 1.852084,1.8520833 V 5.4239645 A 1.8520833,1.8520833 135 0 1 17.065637,7.2760478 H 16.801042 A 1.8520833,1.8520833 45 0 1 14.948958,5.4239645 l 0,-2.3812564 a 1.8520833,1.8520833 135 0 1 1.852084,-1.8520833 z"
       sodipodi:type="rect" />
    <path
       style="fill:none;stroke:#000000;stroke-width:0.264583;stroke-linecap:round;stroke-linejoin:round;stroke-miterlimit:0;stroke-dasharray:none;stroke-opacity:1;paint-order:stroke markers fill"
       id="rect1302-6"
       width="3.9687624"
       height="6.085423"
       x="14.948958"
       y="-32.676048"
       inkscape:path-effect="#path-effect1653"
       sodipodi:type="rect"
       d="m 16.801042,-32.676048 h 0.264595 a 1.8520833,1.8520833 45 0 1 1.852084,1.852083 v 2.381256 a 1.8520833,1.8520833 135 0 1 -1.852084,1.852084 h -0.264595 a 1.8520833,1.8520833 45 0 1 -1.852084,-1.852084 l 0,-2.381256 a 1.8520833,1.8520833 135 0 1 1.852084,-1.852083 z"
       transform="rotate(90)" />
    <path
       style="fill:none;stroke:#000000;stroke-width:0.264583;stroke-linecap:round;stroke-linejoin:round;stroke-miterlimit:0;stroke-dasharray:none;stroke-opacity:1;paint-order:stroke markers fill"
       id="rect1302-6-0"
       width="3.9687624"
       height="6.085423"
       x="-25.9317"
       y="9.4789457"
       inkscape:path-effect="#path-effect1714"
       sodipodi:type="rect"
       transform="rotate(-135)"
       d="m -24.079616,9.4789457 h 0.264595 a 1.8520833,1.8520833 45 0 1 1.852084,1.8520833 v 2.381256 a 1.8520833,1.8520833 135 0 1 -1.852084,1.852084 h -0.264595 A 1.8520833,1.8520833 45 0 1 -25.9317,13.712285 v -2.381256 a 1.8520833,1.8520833 135 0 1 1.852084,-1.8520833 z" />
    <path
       style="fill:none;stroke:#000000;stroke-width:0.264583;stroke-linecap:round;stroke-linejoin:round;stroke-miterlimit:0;stroke-dasharray:none;stroke-opacity:1;paint-order:stroke markers fill"
       id="rect1302-6-0-5"
       width="3.9687624"
       height="6.085423"
       x="-25.9317"
       y="-15.564369"
       inkscape:path-effect="#path-effect2142"
       sodipodi:type="rect"
       transform="rotate(-135)"
       d="m -24.079616,-15.564369 h 0.264595 a 1.8520833,1.8520833 45 0 1 1.852084,1.852083 v 2.381256 a 1.8520833,1.8520833 135 0 1 -1.852084,1.8520838 h -0.264595 A 1.8520833,1.8520833 45 0 1 -25.9317,-11.33103 v -2.381256 a 1.8520833,1.8520833 135 0 1 1.852084,-1.852083 z" />
    <path
       style="fill:none;stroke:#000000;stroke-width:0.264583;stroke-linecap:round;stroke-linejoin:round;stroke-miterlimit:0;stroke-dasharray:none;stroke-opacity:1;paint-order:stroke markers fill"
       id="rect1302-6-0-4"
       width="3.9687624"
       height="6.085423"
       x="-1.9843811"
       y="-14.468372"
       inkscape:path-effect="#path-effect2161"
       sodipodi:type="rect"
       transform="matrix(0.70710678,-0.70710678,-0.70710678,-0.70710678,0,0)"
       d="m -0.13229778,-14.468372 h 0.2645958 a 1.8520833,1.8520833 45 0 1 1.85208328,1.852083 v 2.381256 a 1.8520833,1.8520833 135 0 1 -1.85208328,1.8520836 h -0.2645958 A 1.8520833,1.8520833 45 0 1 -1.9843811,-10.235033 v -2.381256 a 1.8520833,1.8520833 135 0 1 1.85208332,-1.852083 z" />
    <path
       style="fill:none;stroke:#000000;stroke-width:0.264583;stroke-linecap:round;stroke-linejoin:round;stroke-miterlimit:0;stroke-dasharray:none;stroke-opacity:1;paint-order:stroke markers fill"
       id="rect1302-6-0-2"
       width="3.9687624"
       height="6.085423"
       x="-1.9843818"
       y="-39.511688"
       inkscape:path-effect="#path-effect2180"
       sodipodi:type="rect"
       transform="matrix(0.70710678,-0.70710678,-0.70710678,-0.70710678,0,0)"
       d="M -0.13229849,-39.511688 H 0.1322973 a 1.8520833,1.8520833 45 0 1 1.8520833,1.852083 v 2.381256 a 1.8520833,1.8520833 135 0 1 -1.8520833,1.852084 h -0.26459579 a 1.8520833,1.8520833 45 0 1 -1.85208331,-1.852084 v -2.381256 a 1.8520833,1.8520833 135 0 1 1.85208331,-1.852083 z" />
    <path
       style="fill:none;stroke:#000000;stroke-width:0.264583;stroke-linecap:round;stroke-linejoin:round;stroke-miterlimit:0;stroke-dasharray:none;stroke-opacity:1;paint-order:stroke markers fill"
       id="rect1302-92"
       width="3.9687624"
       height="6.085423"
       x="14.948958"
       y="-7.2760477"
       inkscape:path-effect="#path-effect1672"
       sodipodi:type="rect"
       d="m 16.801042,-7.2760477 h 0.264595 a 1.8520833,1.8520833 45 0 1 1.852084,1.8520833 v 2.3812564 a 1.8520833,1.8520833 135 0 1 -1.852084,1.8520833 H 16.801042 A 1.8520833,1.8520833 45 0 1 14.948958,-3.042708 l 0,-2.3812564 a 1.8520833,1.8520833 135 0 1 1.852084,-1.8520833 z"
       transform="rotate(90)" />
    <path
       style="fill:none;stroke:#000000;stroke-width:0.264583;stroke-linecap:round;stroke-linejoin:round;stroke-miterlimit:0;stroke-dasharray:none;stroke-opacity:1;paint-order:stroke markers fill"
       id="rect1302-9"
       width="3.9687624"
       height="6.085423"
       x="14.948958"
       y="26.590626"
       inkscape:path-effect="#path-effect1624"
       sodipodi:type="rect"
       d="m 16.801042,26.590626 h 0.264595 a 1.8520833,1.8520833 45 0 1 1.852084,1.852083 v 2.381256 a 1.8520833,1.8520833 135 0 1 -1.852084,1.852084 h -0.264595 a 1.8520833,1.8520833 45 0 1 -1.852084,-1.852084 l 0,-2.381256 a 1.8520833,1.8520833 135 0 1 1.852084,-1.852083 z" />
  </g>
</svg>
